<?xml version="1.0" encoding="utf-8"?>
<!-- Generator: Adobe Illustrator 18.0.0, SVG Export Plug-In . SVG Version: 6.00 Build 0)  -->
<!DOCTYPE svg PUBLIC "-//W3C//DTD SVG 1.1//EN" "http://www.w3.org/Graphics/SVG/1.1/DTD/svg11.dtd">
<svg version="1.1" id="Layer_1" xmlns="http://www.w3.org/2000/svg" xmlns:xlink="http://www.w3.org/1999/xlink" x="0px" y="0px"
	 viewBox="0 0 160 160" enable-background="new 0 0 160 160" xml:space="preserve">
<path d="M8.7,76.8c-0.5-0.5-1.2-0.8-2-0.8c-0.7,0-1.4,0.3-1.9,0.7C4.3,76.3,3.6,76,2.9,76s-1.4,0.3-2,0.8C0.3,77.3,0,78,0,78.8
	c0,0.8,0.3,1.5,0.9,2l3.4,3.1c0.2,0.2,0.4,0.2,0.6,0.2c0.2,0,0.4-0.1,0.6-0.2l3.4-3.1c0.6-0.6,0.9-1.3,0.9-2
	C9.6,78,9.3,77.3,8.7,76.8z"/>
<path d="M19.2,78.9c-0.1-0.2-0.3-0.4-0.5-0.4l-2.7-0.2l-1-2.5c-0.1-0.2-0.3-0.4-0.5-0.4c-0.2,0-0.4,0.2-0.5,0.4l-1,2.5l-2.7,0.2
	c-0.2,0-0.4,0.2-0.5,0.4c-0.1,0.2,0,0.5,0.2,0.6l2.1,1.8l-0.7,2.6c0,0.2,0,0.5,0.2,0.6c0.2,0.1,0.4,0.2,0.6,0l2.3-1.4l2.3,1.4
	c0.1,0,0.2,0.1,0.3,0.1c0.1,0,0.2,0,0.3-0.1c0.2-0.1,0.3-0.4,0.2-0.6l-0.7-2.6l2.1-1.8C19.2,79.4,19.2,79.1,19.2,78.9z"/>
<g>
	<path d="M27.2,76H28c0.4,0,0.8,0.4,0.8,0.8V84c0,0.4-0.4,0.8-0.8,0.8h-0.8c-0.4,0-0.8-0.4-0.8-0.8v-7.2C26.4,76.4,26.8,76,27.2,76z
		"/>
	<path d="M23.6,77.6h0.8c0.4,0,0.8,0.4,0.8,0.8V84c0,0.4-0.4,0.8-0.8,0.8h-0.8c-0.4,0-0.8-0.4-0.8-0.8v-5.6
		C22.8,78,23.2,77.6,23.6,77.6z"/>
	<path d="M20,79.2h0.8c0.4,0,0.8,0.4,0.8,0.8v4c0,0.4-0.4,0.8-0.8,0.8H20c-0.4,0-0.8-0.4-0.8-0.8v-4C19.2,79.6,19.6,79.2,20,79.2z"
		/>
</g>
<path d="M37.4,79.4l-6.4-3.7c-0.1-0.1-0.2-0.1-0.3-0.1c-0.1,0-0.2,0-0.3,0.1C30.1,75.8,30,76,30,76.3v7.4c0,0.2,0.1,0.5,0.3,0.6
	c0.1,0.1,0.2,0.1,0.3,0.1s0.2,0,0.3-0.1l6.4-3.7c0.2-0.1,0.3-0.4,0.3-0.6C37.7,79.8,37.6,79.5,37.4,79.4z"/>
<g>
	<path d="M52.7,79l-2.6,2.6c-0.1,0.1-0.2,0.1-0.3,0l-0.2-0.2c-0.1-0.1-0.1-0.2,0-0.3l2.6-2.6c0.1-0.1,0.2-0.1,0.3,0l0.2,0.2
		C52.8,78.8,52.8,78.9,52.7,79z"/>
	<path d="M50.2,78.5l2.6,2.6c0.1,0.1,0.1,0.2,0,0.3l-0.2,0.2c-0.1,0.1-0.2,0.1-0.3,0L49.7,79c-0.1-0.1-0.1-0.2,0-0.3l0.2-0.2
		C50,78.4,50.1,78.4,50.2,78.5z"/>
</g>
<g>
	<path d="M67.1,82.5l-1.2-1.2c0.4-0.5,0.6-1,0.6-1.7c0-1.6-1.2-2.8-2.8-2.8c-1.6,0-2.8,1.2-2.8,2.8c0,1.6,1.2,2.8,2.8,2.8
		c0.6,0,1.2-0.2,1.7-0.6l1.2,1.2c0.2,0.2,0.4,0.2,0.6,0C67.2,82.9,67.2,82.7,67.1,82.5z M61.6,79.6c0-1.1,0.9-2,2-2c1.1,0,2,0.9,2,2
		c0,1.1-0.9,2-2,2C62.5,81.6,61.6,80.7,61.6,79.6z"/>
</g>
<g>
	<path d="M47.9,81.4c-0.4-0.2-0.8-0.8-0.8-1.4s0.4-1.2,0.8-1.4c0.1-0.1,0.1-0.2,0.1-0.3c-0.1-0.2-0.1-0.4-0.2-0.5
		c0-0.1-0.2-0.2-0.3-0.1c-0.4,0.1-1.1,0-1.5-0.4c-0.5-0.5-0.6-1.1-0.4-1.5c0-0.1,0-0.2-0.1-0.3c-0.2-0.1-0.3-0.2-0.5-0.2
		c-0.1,0-0.2,0-0.3,0.1c-0.2,0.4-0.8,0.8-1.4,0.8s-1.2-0.4-1.4-0.8c-0.1-0.1-0.2-0.1-0.3-0.1c-0.2,0-0.4,0.1-0.5,0.2
		c-0.1,0-0.2,0.2-0.1,0.3c0.1,0.4,0,1.1-0.5,1.5c-0.5,0.5-1.2,0.5-1.5,0.4c-0.1,0-0.2,0-0.3,0.1c-0.1,0.2-0.2,0.3-0.2,0.5
		c0,0.1,0,0.2,0.1,0.3c0.4,0.2,0.8,0.8,0.8,1.4c0,0.6-0.4,1.2-0.8,1.4c-0.1,0.1-0.1,0.2-0.1,0.3c0.1,0.2,0.1,0.4,0.2,0.5
		c0,0.1,0.2,0.2,0.3,0.1c0.4-0.1,1.1,0,1.5,0.5c0.5,0.5,0.6,1.1,0.4,1.5c0,0.1,0,0.2,0.1,0.3c0.2,0.1,0.3,0.2,0.5,0.2c0,0,0,0,0.1,0
		c0.1,0,0.2,0,0.2-0.1c0.2-0.4,0.8-0.8,1.4-0.8s1.2,0.4,1.4,0.8c0.1,0.1,0.2,0.1,0.3,0.1c0.2-0.1,0.4-0.1,0.5-0.2
		c0.1,0,0.2-0.2,0.1-0.3c-0.1-0.4,0-1.1,0.4-1.5c0.5-0.5,0.8-0.6,1.5-0.4c0.1,0,0.2,0,0.3-0.1c0.1-0.2,0.2-0.3,0.2-0.5
		C48,81.6,48,81.5,47.9,81.4z M45.6,80c0,1.3-1.1,2.4-2.4,2.4s-2.4-1.1-2.4-2.4s1.1-2.4,2.4-2.4S45.6,78.7,45.6,80z"/>
</g>
<g>
	<path d="M57.4,80.7L55.8,79c-0.1-0.1-0.1-0.2,0-0.3l0.2-0.2c0.1-0.1,0.2-0.1,0.3,0l1.7,1.7c0.1,0.1,0.1,0.2,0,0.3l-0.2,0.2
		C57.7,80.8,57.5,80.8,57.4,80.7z"/>
	<path d="M59.4,79l-1.7,1.7c-0.1,0.1-0.2,0.1-0.3,0l-0.2-0.2c-0.1-0.1-0.1-0.2,0-0.3l1.7-1.7c0.1-0.1,0.2-0.1,0.3,0l0.2,0.2
		C59.5,78.8,59.5,78.9,59.4,79z"/>
</g>
<g>
	<path d="M74.5,77.2c-0.4-0.4-1-0.6-1.5-0.6c-0.6,0-1.1,0.2-1.5,0.6l-0.2,0.2L71,77.2c-0.4-0.4-1-0.6-1.5-0.6
		c-0.6,0-1.1,0.2-1.5,0.6c-0.5,0.4-0.7,1-0.7,1.6c0,0.6,0.2,1.2,0.7,1.6l3,2.8c0.1,0.1,0.2,0.1,0.3,0.1c0.1,0,0.2,0,0.3-0.1l3-2.8
		c0.5-0.4,0.7-1,0.7-1.6C75.2,78.2,75,77.7,74.5,77.2z"/>
</g>
<g>
	<path d="M76.2,81.9l4.9-4.9c0.3-0.3,0.8-0.3,1.1,0s0.3,0.8,0,1.1L77.3,83c-0.3,0.3-0.8,0.3-1.1,0C75.9,82.7,75.9,82.2,76.2,81.9z"
		/>
	<path d="M76.2,77c0.3-0.3,0.8-0.3,1.1,0l4.9,4.9c0.3,0.3,0.3,0.8,0,1.1s-0.8,0.3-1.1,0l-4.9-4.9C75.9,77.8,75.9,77.3,76.2,77z"/>
</g>
</svg>
