<svg version="1.0" id="Layer_1" xmlns="http://www.w3.org/2000/svg" xmlns:xlink="http://www.w3.org/1999/xlink" x="0px" y="0px"
	 viewBox="0 0 400 60" enable-background="new 0 0 400 60" xml:space="preserve">

	 <style>
           g { display: none }
           g:target { display: inline }
     </style>
<g id="el1">
<path d="M21.7,21.9c-1.3-1.2-3-1.9-4.9-1.9c-1.8,0-3.5,0.7-4.8,1.8C10.7,20.7,9,20,7.2,20c-1.8,0-3.6,0.7-4.9,1.9
	C0.8,23.2,0,25,0,27c0,1.9,0.8,3.8,2.3,5.1l8.4,7.7c0.4,0.4,0.9,0.5,1.4,0.5s1-0.2,1.4-0.5l8.4-7.7c1.5-1.4,2.3-3.2,2.3-5.1
	C24,25,23.2,23.2,21.7,21.9z"/>
</g>
<g id="el2">
<path d="M47.9,27.2c-0.2-0.6-0.7-1-1.3-1l-6.8-0.5l-2.5-6.3c-0.2-0.5-0.7-0.9-1.3-0.9s-1.1,0.4-1.3,0.9l-2.5,6.3l-6.8,0.5
	c-0.6,0-1.1,0.4-1.3,1c-0.2,0.6,0,1.2,0.4,1.6l5.2,4.4l-1.7,6.6c-0.1,0.6,0.1,1.2,0.6,1.5c0.5,0.3,1.1,0.4,1.6,0.1l5.8-3.6l5.8,3.6
	c0.2,0.1,0.5,0.2,0.8,0.2c0.3,0,0.6-0.1,0.8-0.3c0.5-0.3,0.7-0.9,0.6-1.5l-1.7-6.6l5.2-4.4C47.9,28.4,48.1,27.7,47.9,27.2z"/>
</g>
<g id="el3">
	<path fill-rule="evenodd" clip-rule="evenodd" d="M68,20h2c1.1,0,2,0.9,2,2v18c0,1.1-0.9,2-2,2h-2c-1.1,0-2-0.9-2-2V22
		C66,20.9,66.9,20,68,20z"/>
	<path fill-rule="evenodd" clip-rule="evenodd" d="M59,24h2c1.1,0,2,0.9,2,2v14c0,1.1-0.9,2-2,2h-2c-1.1,0-2-0.9-2-2V26
		C57,24.9,57.9,24,59,24z"/>
	<path fill-rule="evenodd" clip-rule="evenodd" d="M50,28h2c1.1,0,2,0.9,2,2v10c0,1.1-0.9,2-2,2h-2c-1.1,0-2-0.9-2-2V30
		C48,28.9,48.9,28,50,28z"/>
</g>
<g id="el4">
<path d="M93.4,28.5l-16.1-9.3c-0.3-0.2-0.6-0.2-0.8-0.2c-0.3,0-0.5,0.1-0.7,0.2c-0.5,0.3-0.7,0.9-0.7,1.5v18.6
	c0,0.6,0.2,1.2,0.7,1.5c0.3,0.2,0.5,0.2,0.8,0.2c0.3,0,0.6-0.1,0.8-0.2l16.1-9.3c0.5-0.3,0.8-0.9,0.8-1.5S93.9,28.8,93.4,28.5z"/>
</g>
<g id="el5">
	<path d="M131.8,27.4l-6.4,6.4c-0.2,0.2-0.5,0.2-0.7,0l-0.6-0.6c-0.2-0.2-0.2-0.5,0-0.7l6.4-6.4c0.2-0.2,0.5-0.2,0.7,0l0.6,0.6
		C132,26.9,132,27.3,131.8,27.4z"/>
	<path d="M125.5,26.2l6.4,6.4c0.2,0.2,0.2,0.5,0,0.7l-0.6,0.6c-0.2,0.2-0.5,0.2-0.7,0l-6.4-6.4c-0.2-0.2-0.2-0.5,0-0.7l0.6-0.6
		C124.9,26,125.3,26,125.5,26.2z"/>
</g>
<g id="el6">
	<path d="M167.7,36.3l-3.1-3.1c0.9-1.2,1.4-2.6,1.4-4.2c0-3.9-3.1-7-7-7c-3.9,0-7,3.1-7,7c0,3.9,3.1,7,7,7c1.6,0,3-0.5,4.2-1.4
		l3.1,3.1c0.4,0.4,1,0.4,1.4,0C168.1,37.3,168.1,36.7,167.7,36.3z M154,29c0-2.8,2.2-5,5-5c2.8,0,5,2.2,5,5c0,2.8-2.2,5-5,5
		C156.2,34,154,31.8,154,29z"/>
</g>
<g id="el7">
	<path d="M119.7,33.5c-0.9-0.6-1.9-1.9-1.9-3.5c0-1.6,0.9-2.9,1.9-3.5c0.2-0.2,0.3-0.4,0.2-0.7c-0.2-0.4-0.3-0.9-0.5-1.3
		c-0.1-0.3-0.4-0.4-0.7-0.3c-1,0.2-2.7,0-3.8-1.1c-1.2-1.2-1.4-2.7-1.1-3.8c0.1-0.3-0.1-0.6-0.3-0.7c-0.4-0.2-0.8-0.4-1.2-0.5
		c-0.3-0.1-0.6,0-0.7,0.2c-0.6,0.9-1.9,1.9-3.5,1.9c-1.6,0-2.9-1-3.5-1.9c-0.2-0.2-0.4-0.3-0.7-0.3c-0.4,0.1-0.9,0.3-1.2,0.5
		c-0.3,0.1-0.4,0.4-0.3,0.7c0.3,1.1,0,2.7-1.2,3.8c-1.2,1.2-2.9,1.3-3.8,1.1c-0.3-0.1-0.6,0.1-0.7,0.3c-0.2,0.4-0.4,0.8-0.5,1.2
		c-0.1,0.3,0,0.6,0.2,0.7c0.9,0.6,1.9,1.9,1.9,3.5c0,1.6-0.9,2.9-1.9,3.5c-0.2,0.2-0.3,0.4-0.2,0.7c0.2,0.4,0.3,0.9,0.5,1.3
		c0.1,0.3,0.4,0.4,0.7,0.3c1-0.2,2.7,0,3.8,1.2c1.2,1.2,1.4,2.7,1.1,3.8c-0.1,0.3,0.1,0.6,0.3,0.7c0.4,0.2,0.8,0.4,1.2,0.5
		c0.1,0,0.1,0,0.2,0c0.2,0,0.4-0.1,0.5-0.3c0.6-0.9,1.9-1.9,3.5-1.9c1.6,0,2.9,0.9,3.5,1.9c0.2,0.2,0.4,0.3,0.7,0.2
		c0.4-0.2,0.9-0.3,1.2-0.5c0.3-0.1,0.4-0.4,0.3-0.7c-0.3-1.1,0-2.7,1.1-3.8c1.2-1.2,2-1.5,3.8-1.1c0.3,0.1,0.6-0.1,0.7-0.3
		c0.2-0.4,0.4-0.8,0.5-1.2C120.1,34,119.9,33.7,119.7,33.5z M114,30c0,3.3-2.7,6-6,6c-3.3,0-6-2.7-6-6c0-3.3,2.7-6,6-6
		C111.3,24,114,26.7,114,30z"/>
</g>
<g id="el8">
	<path d="M143.6,31.7l-4.2-4.2c-0.2-0.2-0.2-0.5,0-0.7l0.6-0.6c0.2-0.2,0.5-0.2,0.7,0l4.2,4.2c0.2,0.2,0.2,0.5,0,0.7l-0.6,0.6
		C144.2,31.9,143.8,31.9,143.6,31.7z"/>
	<path d="M148.6,27.4l-4.2,4.2c-0.2,0.2-0.5,0.2-0.7,0l-0.6-0.6c-0.2-0.2-0.2-0.5,0-0.7l4.2-4.2c0.2-0.2,0.5-0.2,0.7,0l0.6,0.6
		C148.8,26.9,148.8,27.2,148.6,27.4z"/>
</g>
<g id="el9">
	<path d="M186.2,23.1c-1-0.9-2.4-1.5-3.8-1.5c-1.4,0-2.8,0.5-3.8,1.5l-0.5,0.5l-0.5-0.5c-1-0.9-2.4-1.5-3.8-1.5
		c-1.4,0-2.8,0.5-3.8,1.5c-1.2,1.1-1.8,2.5-1.8,4c0,1.5,0.6,2.9,1.8,4l7.5,6.9c0.2,0.2,0.4,0.3,0.7,0.3c0.2,0,0.5-0.1,0.7-0.3
		l7.5-6.9c1.2-1.1,1.8-2.5,1.8-4C188,25.6,187.4,24.2,186.2,23.1z"/>
</g>
<g id="el10">
	<path fill-rule="evenodd" clip-rule="evenodd" d="M190.6,34.7l12.2-12.2c0.7-0.7,2-0.7,2.7,0c0.7,0.7,0.7,2,0,2.7l-12.2,12.2
		c-0.7,0.7-2,0.7-2.7,0C189.8,36.7,189.8,35.5,190.6,34.7z"/>
	<path fill-rule="evenodd" clip-rule="evenodd" d="M190.6,22.6c0.7-0.7,2-0.7,2.7,0l12.2,12.2c0.7,0.7,0.7,2,0,2.7
		c-0.7,0.7-2,0.7-2.7,0l-12.2-12.2C189.8,24.5,189.8,23.3,190.6,22.6z"/>
</g>

</svg>
